<svg width="32" height="32" viewBox="0 0 32 32" fill="none" xmlns="http://www.w3.org/2000/svg">
<path fill-rule="evenodd" clip-rule="evenodd" d="M24.0725 0H7.3675C5.41398 0.0019494 3.54105 0.778514 2.15994 2.15994C0.778514 3.54112 0.00193381 5.41398 0 7.3675V24.0725C0.00194941 26.026 0.778514 27.8989 2.15994 29.2801C3.54112 30.6615 5.41398 31.4381 7.3675 31.44H24.0725C26.026 31.438 27.899 30.6615 29.2801 29.2801C30.6615 27.8989 31.4381 26.026 31.44 24.0725V7.3675C31.4381 5.41398 30.6615 3.54105 29.2801 2.15994C27.8989 0.778514 26.026 0.00193381 24.0725 0ZM28.9947 24.0722C28.9957 25.3781 28.4774 26.6306 27.5541 27.5538C26.6308 28.477 25.3783 28.9953 24.0725 28.9944H7.3675C6.06162 28.9954 4.80914 28.4771 3.8859 27.5538C2.96266 26.6305 2.44434 25.378 2.44527 24.0722V7.36719C2.4443 6.06131 2.9626 4.80882 3.8859 3.88558C4.8092 2.96235 6.06168 2.44402 7.3675 2.44496H24.0725C25.3784 2.44398 26.6309 2.96228 27.5541 3.88558C28.4774 4.80889 28.9957 6.06137 28.9947 7.36719V24.0722ZM7.68567 15.6988C7.68567 18.5693 9.21718 21.2217 11.7031 22.6567C14.1889 24.092 17.2518 24.092 19.7378 22.6567C22.2238 21.2215 23.7552 18.5691 23.7552 15.6988C23.3149 5.01603 8.12633 5.01291 7.68592 15.6988H7.68567ZM10.1589 15.6988C10.1589 13.7118 11.2189 11.876 12.9398 10.8825C14.6604 9.88904 16.7803 9.88904 18.5009 10.8825C20.2217 11.876 21.2817 13.7118 21.2817 15.6988C20.9778 23.094 10.4805 23.0978 10.1592 15.6988H10.1589ZM23.4655 5.99849C23.7277 5.73654 24.083 5.58936 24.4536 5.58936C24.8243 5.58936 25.1796 5.73654 25.4418 5.99849C25.7037 6.26067 25.8509 6.61596 25.8509 6.9866C25.8509 7.35724 25.7037 7.71252 25.4418 7.97472C25.1796 8.23667 24.8243 8.38385 24.4536 8.38385C24.083 8.38385 23.7277 8.23667 23.4655 7.97472C23.2036 7.71253 23.0564 7.35724 23.0564 6.9866C23.0564 6.61596 23.2036 6.26068 23.4655 5.99849Z" fill="#1F2039"/>
</svg>
